solid Visualization Toolkit generated SLA File
 facet normal -1 0 0
  outer loop
   vertex -600 -200 -200
   vertex -600 -200 200
   vertex -600 200 -200
  endloop
 endfacet
 facet normal -1 0 0
  outer loop
   vertex -600 200 200
   vertex -600 200 -200
   vertex -600 -200 200
  endloop
 endfacet
 facet normal 1 0 0
  outer loop
   vertex 600 -200 -200
   vertex 600 200 -200
   vertex 600 -200 200
  endloop
 endfacet
 facet normal 1 -0 0
  outer loop
   vertex 600 200 200
   vertex 600 -200 200
   vertex 600 200 -200
  endloop
 endfacet
 facet normal 0 -1 0
  outer loop
   vertex -600 -200 -200
   vertex 600 -200 -200
   vertex -600 -200 200
  endloop
 endfacet
 facet normal 0 -1 0
  outer loop
   vertex 600 -200 200
   vertex -600 -200 200
   vertex 600 -200 -200
  endloop
 endfacet
 facet normal 0 1 0
  outer loop
   vertex -600 200 -200
   vertex -600 200 200
   vertex 600 200 -200
  endloop
 endfacet
 facet normal 0 1 -0
  outer loop
   vertex 600 200 200
   vertex 600 200 -200
   vertex -600 200 200
  endloop
 endfacet
 facet normal 0 0 -1
  outer loop
   vertex -600 -200 -200
   vertex -600 200 -200
   vertex 600 -200 -200
  endloop
 endfacet
 facet normal 0 0 -1
  outer loop
   vertex 600 200 -200
   vertex 600 -200 -200
   vertex -600 200 -200
  endloop
 endfacet
 facet normal 0 0 1
  outer loop
   vertex -600 -200 200
   vertex 600 -200 200
   vertex -600 200 200
  endloop
 endfacet
 facet normal -0 0 1
  outer loop
   vertex 600 200 200
   vertex -600 200 200
   vertex 600 -200 200
  endloop
 endfacet
endsolid
