solid Visualization Toolkit generated SLA File
 facet normal -1 0 0
  outer loop
   vertex -270 -10 -205
   vertex -270 -10 -140
   vertex -270 10 -205
  endloop
 endfacet
 facet normal -1 0 0
  outer loop
   vertex -270 10 -140
   vertex -270 10 -205
   vertex -270 -10 -140
  endloop
 endfacet
 facet normal 1 0 0
  outer loop
   vertex -250 -10 -205
   vertex -250 10 -205
   vertex -250 -10 -140
  endloop
 endfacet
 facet normal 1 -0 0
  outer loop
   vertex -250 10 -140
   vertex -250 -10 -140
   vertex -250 10 -205
  endloop
 endfacet
 facet normal 0 -1 0
  outer loop
   vertex -270 -10 -205
   vertex -250 -10 -205
   vertex -270 -10 -140
  endloop
 endfacet
 facet normal 0 -1 0
  outer loop
   vertex -250 -10 -140
   vertex -270 -10 -140
   vertex -250 -10 -205
  endloop
 endfacet
 facet normal 0 1 0
  outer loop
   vertex -270 10 -205
   vertex -270 10 -140
   vertex -250 10 -205
  endloop
 endfacet
 facet normal 0 1 -0
  outer loop
   vertex -250 10 -140
   vertex -250 10 -205
   vertex -270 10 -140
  endloop
 endfacet
 facet normal 0 0 -1
  outer loop
   vertex -270 -10 -205
   vertex -270 10 -205
   vertex -250 -10 -205
  endloop
 endfacet
 facet normal 0 0 -1
  outer loop
   vertex -250 10 -205
   vertex -250 -10 -205
   vertex -270 10 -205
  endloop
 endfacet
 facet normal 0 0 1
  outer loop
   vertex -270 -10 -140
   vertex -250 -10 -140
   vertex -270 10 -140
  endloop
 endfacet
 facet normal -0 0 1
  outer loop
   vertex -250 10 -140
   vertex -270 10 -140
   vertex -250 -10 -140
  endloop
 endfacet
endsolid
