solid 
facet normal 0.0 0.0 1.0
outer loop
vertex -514.5409226431028 -59.29753988070502 -300.0
vertex -370.02223831808055 -57.10411840629757 -300.0
vertex -356.36658117446734 -50.22392701015101 -300.0
endloop
endfacet
facet normal 0.0 0.0 1.0
outer loop
vertex -347.1994128497197 -99.46218680340957 -300.0
vertex -353.44178696201266 -87.07245580153905 -300.0
vertex -492.88147153559595 -99.71167913255941 -300.0
endloop
endfacet
facet normal 0.0 0.0 1.0
outer loop
vertex -492.88147153559595 -99.71167913255941 -300.0
vertex -503.44463240872466 -78.7461427207286 -300.0
vertex -530.2261255942275 -80.12165334470978 -300.0
endloop
endfacet
facet normal -0.0 0.0 1.0
outer loop
vertex -502.8746769104476 -124.99180957234222 -300.0
vertex -479.80672534029526 -127.3333282888026 -300.0
vertex -461.11958911141 -117.9181040671892 -300.0
endloop
endfacet
facet normal -0.0 0.0 1.0
outer loop
vertex -461.11958911141 -117.9181040671892 -300.0
vertex -343.7522836040189 -122.92903978973565 -300.0
vertex -310.0219473098987 -105.93453215679642 -300.0
endloop
endfacet
facet normal -0.0 0.0 0.9999999999999999
outer loop
vertex -700.0 250.0 -300.0
vertex -700.0 -250.0 -300.0
vertex -536.4677635514928 53.42109029501567 -300.0
endloop
endfacet
facet normal 0.0 0.0 1.0
outer loop
vertex -536.4677635514928 53.42109029501567 -300.0
vertex -459.36096506321877 118.0893542487597 -300.0
vertex -459.3195120505877 119.80455368839432 -300.0
endloop
endfacet
facet normal 0.0 0.0 1.0
outer loop
vertex -451.28004244688856 127.46459680440203 -300.0
vertex -360.4045752452661 132.7046530891559 -300.0
vertex -333.5326230050343 146.24367011752165 -300.0
endloop
endfacet
facet normal 0.0 0.0 1.0
outer loop
vertex -459.06700275683545 116.39902480382749 -300.0
vertex -459.36096506321877 118.0893542487597 -300.0
vertex -536.4677635514928 53.42109029501567 -300.0
endloop
endfacet
facet normal 0.0 0.0 0.9999999999999999
outer loop
vertex -525.9764160677981 58.70699326784036 -300.0
vertex -435.39434319255594 74.20305790079692 -300.0
vertex -418.47630806649266 82.72694792600058 -300.0
endloop
endfacet
facet normal 0.0 0.0 0.9999999999999999
outer loop
vertex -523.5110521265523 27.70488579715554 -300.0
vertex -536.4677635514928 53.42109029501567 -300.0
vertex -700.0 -250.0 -300.0
endloop
endfacet
facet normal -0.0 0.0 1.0
outer loop
vertex -700.0 250.0 -300.0
vertex -536.4677635514928 53.42109029501567 -300.0
vertex -459.3195120505877 119.80455368839432 -300.0
endloop
endfacet
facet normal 0.0 0.0 1.0
outer loop
vertex -458.4489219380161 114.79852376621872 -300.0
vertex -459.06700275683545 116.39902480382749 -300.0
vertex -536.4677635514928 53.42109029501567 -300.0
endloop
endfacet
facet normal 0.0 0.0 1.0
outer loop
vertex -513.0197046428576 32.990788769980234 -300.0
vertex -523.5110521265523 27.70488579715554 -300.0
vertex -700.0 -250.0 -300.0
endloop
endfacet
facet normal -0.0 0.0 1.0
outer loop
vertex -700.0 250.0 -300.0
vertex -459.3195120505877 119.80455368839432 -300.0
vertex -458.9442367349707 121.4787089701611 -300.0
endloop
endfacet
facet normal 0.0 0.0 1.0
outer loop
vertex -457.5304751060043 113.3493574932374 -300.0
vertex -458.4489219380161 114.79852376621872 -300.0
vertex -536.4677635514928 53.42109029501567 -300.0
endloop
endfacet
facet normal -0.0 0.0 1.0
outer loop
vertex -513.0197046428576 32.990788769980234 -300.0
vertex -700.0 -250.0 -300.0
vertex -517.6646494086731 -27.206636712792974 -300.0
endloop
endfacet
facet normal -0.0 0.0 1.0
outer loop
vertex -517.6646494086731 -27.206636712792974 -300.0
vertex -700.0 -250.0 -300.0
vertex -535.4183213543594 -69.81629393819755 -300.0
endloop
endfacet
facet normal 0.0 0.0 1.0
outer loop
vertex -530.2261255942275 -80.12165334470978 -300.0
vertex -535.4183213543594 -69.81629393819755 -300.0
vertex -700.0 -250.0 -300.0
endloop
endfacet
facet normal -0.0 0.0 1.0
outer loop
vertex -700.0 250.0 -300.0
vertex -458.9442367349707 121.4787089701611 -300.0
vertex -458.2495607362899 123.04748324545884 -300.0
endloop
endfacet
facet normal 0.0 0.0 1.0
outer loop
vertex -456.3469576574833 112.10721663205238 -300.0
vertex -457.5304751060043 113.3493574932374 -300.0
vertex -536.4677635514928 53.42109029501567 -300.0
endloop
endfacet
facet normal -0.0 0.0 1.0
outer loop
vertex -513.0197046428576 32.990788769980234 -300.0
vertex -517.6646494086731 -27.206636712792974 -300.0
vertex -413.9483672845428 25.14061499573144 -300.0
endloop
endfacet
facet normal -0.0 0.0 1.0
outer loop
vertex -413.9483672845428 25.14061499573144 -300.0
vertex -517.6646494086731 -27.206636712792974 -300.0
vertex -486.765593861861 -11.638626042456227 -300.0
endloop
endfacet
facet normal 0.0 0.0 1.0
outer loop
vertex -505.4260057501144 -51.49763562275601 -300.0
vertex -517.6646494086731 -27.206636712792974 -300.0
vertex -535.4183213543594 -69.81629393819755 -300.0
endloop
endfacet
facet normal -0.0 0.0 1.0
outer loop
vertex -509.34872688297094 -69.60289928721726 -300.0
vertex -530.2261255942275 -80.12165334470978 -300.0
vertex -503.44463240872466 -78.7461427207286 -300.0
endloop
endfacet
facet normal 0.0 0.0 0.9999999999999999
outer loop
vertex -492.88147153559595 -99.71167913255941 -300.0
vertex -530.2261255942275 -80.12165334470978 -300.0
vertex -700.0 -250.0 -300.0
endloop
endfacet
facet normal -0.0 0.0 1.0
outer loop
vertex -700.0 250.0 -300.0
vertex -458.2495607362899 123.04748324545884 -300.0
vertex -457.2621800635959 124.4505893986666 -300.0
endloop
endfacet
facet normal 0.0 0.0 1.0
outer loop
vertex -454.9438515042756 111.11983595935841 -300.0
vertex -456.3469576574833 112.10721663205238 -300.0
vertex -536.4677635514928 53.42109029501567 -300.0
endloop
endfacet
facet normal -0.0 0.0 1.0
outer loop
vertex -513.0197046428576 32.990788769980234 -300.0
vertex -413.9483672845428 25.14061499573144 -300.0
vertex -378.07470511894314 43.2150041799579 -300.0
endloop
endfacet
facet normal 0.0 0.0 1.0
outer loop
vertex -392.93331549454626 -16.569611591888783 -300.0
vertex -413.9483672845428 25.14061499573144 -300.0
vertex -486.765593861861 -11.638626042456227 -300.0
endloop
endfacet
facet normal 0.0 0.0 0.9999999999999999
outer loop
vertex -474.52695020330236 -35.92962495241925 -300.0
vertex -505.4260057501144 -51.49763562275601 -300.0
vertex -535.4183213543594 -69.81629393819755 -300.0
endloop
endfacet
facet normal -0.0 0.0 1.0
outer loop
vertex -509.34872688297094 -69.60289928721726 -300.0
vertex -503.44463240872466 -78.7461427207286 -300.0
vertex -465.6709317217439 -59.714448549296364 -300.0
endloop
endfacet
facet normal -0.0 0.0 1.0
outer loop
vertex -455.1077708486152 -80.67998496112718 -300.0
vertex -492.88147153559595 -99.71167913255941 -300.0
vertex -353.44178696201266 -87.07245580153905 -300.0
endloop
endfacet
facet normal -0.0 0.0 0.9999999999999999
outer loop
vertex -492.88147153559595 -99.71167913255941 -300.0
vertex -700.0 -250.0 -300.0
vertex -514.7730360020252 -130.98661355644944 -300.0
endloop
endfacet
facet normal 0.0 0.0 1.0
outer loop
vertex -508.40320537717565 -143.62931752607307 -300.0
vertex -514.7730360020252 -130.98661355644944 -300.0
vertex -700.0 -250.0 -300.0
endloop
endfacet
facet normal -0.0 0.0 1.0
outer loop
vertex -700.0 250.0 -300.0
vertex -457.2621800635959 124.4505893986666 -300.0
vertex -456.0200392024109 125.63410684718758 -300.0
endloop
endfacet
facet normal 0.0 0.0 1.0
outer loop
vertex -453.37507722897783 110.42515996067762 -300.0
vertex -454.9438515042756 111.11983595935841 -300.0
vertex -536.4677635514928 53.42109029501567 -300.0
endloop
endfacet
facet normal 0.0 0.0 1.0
outer loop
vertex -392.93331549454626 -16.569611591888783 -300.0
vertex -486.765593861861 -11.638626042456227 -300.0
vertex -474.52695020330236 -35.92962495241925 -300.0
endloop
endfacet
facet normal -0.0 0.0 1.0
outer loop
vertex -474.52695020330236 -35.92962495241925 -300.0
vertex -535.4183213543594 -69.81629393819755 -300.0
vertex -514.5409226431028 -59.29753988070502 -300.0
endloop
endfacet
facet normal -0.0 0.0 1.0
outer loop
vertex -514.5409226431028 -59.29753988070502 -300.0
vertex -509.34872688297094 -69.60289928721726 -300.0
vertex -465.6709317217439 -59.714448549296364 -300.0
endloop
endfacet
facet normal 0.0 0.0 1.0
outer loop
vertex -465.6709317217439 -59.714448549296364 -300.0
vertex -455.1077708486152 -80.67998496112718 -300.0
vertex -353.44178696201266 -87.07245580153905 -300.0
endloop
endfacet
facet normal -0.0 0.0 1.0
outer loop
vertex -492.88147153559595 -99.71167913255941 -300.0
vertex -514.7730360020252 -130.98661355644944 -300.0
vertex -502.8746769104476 -124.99180957234222 -300.0
endloop
endfacet
facet normal 0.0 0.0 1.0
outer loop
vertex -470.43110671439314 -145.941856176021 -300.0
vertex -479.80672534029526 -127.3333282888026 -300.0
vertex -502.8746769104476 -124.99180957234222 -300.0
endloop
endfacet
facet normal 0.0 0.0 1.0
outer loop
vertex -496.50484628559803 -137.63451354196584 -300.0
vertex -508.40320537717565 -143.62931752607307 -300.0
vertex -700.0 -250.0 -300.0
endloop
endfacet
facet normal -0.0 0.0 0.9999999999999999
outer loop
vertex -700.0 250.0 -300.0
vertex -456.0200392024109 125.63410684718758 -300.0
vertex -454.5708729294296 126.55255367919939 -300.0
endloop
endfacet
facet normal 0.0 0.0 0.9999999999999999
outer loop
vertex -451.70092194721104 110.04988464506054 -300.0
vertex -453.37507722897783 110.42515996067762 -300.0
vertex -536.4677635514928 53.42109029501567 -300.0
endloop
endfacet
facet normal 0.0 0.0 1.0
outer loop
vertex -392.93331549454626 -16.569611591888783 -300.0
vertex -474.52695020330236 -35.92962495241925 -300.0
vertex -514.5409226431028 -59.29753988070502 -300.0
endloop
endfacet
facet normal 0.0 0.0 1.0
outer loop
vertex -370.02223831808055 -57.10411840629757 -300.0
vertex -514.5409226431028 -59.29753988070502 -300.0
vertex -465.6709317217439 -59.714448549296364 -300.0
endloop
endfacet
facet normal -0.0 0.0 1.0
outer loop
vertex -465.6709317217439 -59.714448549296364 -300.0
vertex -353.44178696201266 -87.07245580153905 -300.0
vertex -333.67965279204464 -77.11561051348201 -300.0
endloop
endfacet
facet normal -0.0 0.0 1.0
outer loop
vertex -492.88147153559595 -99.71167913255941 -300.0
vertex -502.8746769104476 -124.99180957234222 -300.0
vertex -461.11958911141 -117.9181040671892 -300.0
endloop
endfacet
facet normal 0.0 0.0 0.9999999999999999
outer loop
vertex -335.1200652426494 -140.06208268701397 -300.0
vertex -343.7522836040189 -122.92903978973565 -300.0
vertex -461.11958911141 -117.9181040671892 -300.0
endloop
endfacet
facet normal 0.0 0.0 1.0
outer loop
vertex -470.43110671439314 -145.941856176021 -300.0
vertex -502.8746769104476 -124.99180957234222 -300.0
vertex -496.50484628559803 -137.63451354196584 -300.0
endloop
endfacet
facet normal -0.0 0.0 1.0
outer loop
vertex -700.0 250.0 -300.0
vertex -454.5708729294296 126.55255367919939 -300.0
vertex -452.9703718918208 127.17063449801871 -300.0
endloop
endfacet
facet normal 0.0 0.0 1.0
outer loop
vertex -449.98572250757644 110.00843163242952 -300.0
vertex -451.70092194721104 110.04988464506054 -300.0
vertex -536.4677635514928 53.42109029501567 -300.0
endloop
endfacet
facet normal -0.0 0.0 1.0
outer loop
vertex -392.93331549454626 -16.569611591888783 -300.0
vertex -514.5409226431028 -59.29753988070502 -300.0
vertex -356.36658117446734 -50.22392701015101 -300.0
endloop
endfacet
facet normal 0.0 0.0 1.0
outer loop
vertex -363.1093202841547 -70.82473068258741 -300.0
vertex -370.02223831808055 -57.10411840629757 -300.0
vertex -465.6709317217439 -59.714448549296364 -300.0
endloop
endfacet
facet normal 0.0 0.0 1.0
outer loop
vertex -347.1994128497197 -99.46218680340957 -300.0
vertex -492.88147153559595 -99.71167913255941 -300.0
vertex -461.11958911141 -117.9181040671892 -300.0
endloop
endfacet
facet normal 0.0 0.0 1.0
outer loop
vertex -335.1200652426494 -140.06208268701397 -300.0
vertex -461.11958911141 -117.9181040671892 -300.0
vertex -451.7439704855079 -136.5266319544076 -300.0
endloop
endfacet
facet normal 0.0 0.0 1.0
outer loop
vertex -470.43110671439314 -145.941856176021 -300.0
vertex -496.50484628559803 -137.63451354196584 -300.0
vertex -700.0 -250.0 -300.0
endloop
endfacet
facet normal 0.0 0.0 1.0
outer loop
vertex 0.0 250.0 -300.0
vertex -700.0 250.0 -300.0
vertex -452.9703718918208 127.17063449801871 -300.0
endloop
endfacet
facet normal 0.0 0.0 1.0
outer loop
vertex -448.2953930626442 110.30239393881284 -300.0
vertex -449.98572250757644 110.00843163242952 -300.0
vertex -536.4677635514928 53.42109029501567 -300.0
endloop
endfacet
facet normal 0.0 0.0 1.0
outer loop
vertex -357.0596533289466 1.504777592337673 -300.0
vertex -392.93331549454626 -16.569611591888783 -300.0
vertex -356.36658117446734 -50.22392701015101 -300.0
endloop
endfacet
facet normal 0.0 0.0 0.9999999999999999
outer loop
vertex -363.1093202841547 -70.82473068258741 -300.0
vertex -465.6709317217439 -59.714448549296364 -300.0
vertex -333.67965279204464 -77.11561051348201 -300.0
endloop
endfacet
facet normal -0.0 0.0 1.0
outer loop
vertex -347.1994128497197 -99.46218680340957 -300.0
vertex -461.11958911141 -117.9181040671892 -300.0
vertex -310.0219473098987 -105.93453215679642 -300.0
endloop
endfacet
facet normal 0.0 0.0 1.0
outer loop
vertex -335.1200652426494 -140.06208268701397 -300.0
vertex -451.7439704855079 -136.5266319544076 -300.0
vertex -470.43110671439314 -145.941856176021 -300.0
endloop
endfacet
facet normal -0.0 0.0 1.0
outer loop
vertex -470.43110671439314 -145.941856176021 -300.0
vertex -700.0 -250.0 -300.0
vertex 0.0 -250.0 -300.0
endloop
endfacet
facet normal -0.0 0.0 1.0
outer loop
vertex 0.0 250.0 -300.0
vertex -452.9703718918208 127.17063449801871 -300.0
vertex -451.28004244688856 127.46459680440203 -300.0
endloop
endfacet
facet normal 0.0 0.0 1.0
outer loop
vertex -360.4045752452661 132.7046530891559 -300.0
vertex -451.28004244688856 127.46459680440203 -300.0
vertex -449.56484300725396 127.42314379177101 -300.0
endloop
endfacet
facet normal 0.0 0.0 1.0
outer loop
vertex -446.6948920250354 110.92047475763216 -300.0
vertex -448.2953930626442 110.30239393881284 -300.0
vertex -536.4677635514928 53.42109029501567 -300.0
endloop
endfacet
facet normal 0.0 0.0 1.0
outer loop
vertex -357.0596533289466 1.504777592337673 -300.0
vertex -356.36658117446734 -50.22392701015101 -300.0
vertex -349.4536631405415 -63.94453928644086 -300.0
endloop
endfacet
facet normal 0.0 0.0 1.0
outer loop
vertex -349.4536631405415 -63.94453928644086 -300.0
vertex -363.1093202841547 -70.82473068258741 -300.0
vertex -333.67965279204464 -77.11561051348201 -300.0
endloop
endfacet
facet normal 0.0 0.0 0.9999999999999999
outer loop
vertex -327.43727867975167 -89.50534151535253 -300.0
vertex -347.1994128497197 -99.46218680340957 -300.0
vertex -310.0219473098987 -105.93453215679642 -300.0
endloop
endfacet
facet normal 0.0 0.0 1.0
outer loop
vertex -335.1200652426494 -140.06208268701397 -300.0
vertex -470.43110671439314 -145.941856176021 -300.0
vertex 0.0 -250.0 -300.0
endloop
endfacet
facet normal -0.0 0.0 1.0
outer loop
vertex 0.0 250.0 -300.0
vertex -451.28004244688856 127.46459680440203 -300.0
vertex -333.5326230050343 146.24367011752165 -300.0
endloop
endfacet
facet normal 0.0 0.0 1.0
outer loop
vertex -360.4045752452661 132.7046530891559 -300.0
vertex -449.56484300725396 127.42314379177101 -300.0
vertex -447.89068772548717 127.04786847615394 -300.0
endloop
endfacet
facet normal 0.0 0.0 0.9999999999999999
outer loop
vertex -445.2457257520541 111.83892158964397 -300.0
vertex -446.6948920250354 110.92047475763216 -300.0
vertex -536.4677635514928 53.42109029501567 -300.0
endloop
endfacet
facet normal 0.0 0.0 1.0
outer loop
vertex -357.0596533289466 1.504777592337673 -300.0
vertex -349.4536631405415 -63.94453928644086 -300.0
vertex -333.67965279204464 -77.11561051348201 -300.0
endloop
endfacet
facet normal 0.0 0.0 1.0
outer loop
vertex -333.67965279204464 -77.11561051348201 -300.0
vertex -327.43727867975167 -89.50534151535253 -300.0
vertex -310.0219473098987 -105.93453215679642 -300.0
endloop
endfacet
facet normal 0.0 0.0 1.0
outer loop
vertex -301.3897289485292 -123.06757505407474 -300.0
vertex -335.1200652426494 -140.06208268701397 -300.0
vertex 0.0 -250.0 -300.0
endloop
endfacet
facet normal 0.0 -0.0 1.0
outer loop
vertex 0.0 -250.0 -300.0
vertex 0.0 250.0 -300.0
vertex -333.5326230050343 146.24367011752165 -300.0
endloop
endfacet
facet normal 0.0 0.0 1.0
outer loop
vertex -345.02082215716047 102.17130806174436 -300.0
vertex -360.4045752452661 132.7046530891559 -300.0
vertex -447.89068772548717 127.04786847615394 -300.0
endloop
endfacet
facet normal -0.0 0.0 1.0
outer loop
vertex -445.2457257520541 111.83892158964397 -300.0
vertex -536.4677635514928 53.42109029501567 -300.0
vertex -525.9764160677981 58.70699326784036 -300.0
endloop
endfacet
facet normal 0.0 0.0 1.0
outer loop
vertex -427.72788767453125 58.98684049737684 -300.0
vertex -435.39434319255594 74.20305790079692 -300.0
vertex -525.9764160677981 58.70699326784036 -300.0
endloop
endfacet
facet normal -0.0 0.0 0.9999999999999999
outer loop
vertex -525.9764160677981 58.70699326784036 -300.0
vertex -332.0155769621381 45.01854667349341 -300.0
vertex -314.0589187930783 54.065730835999446 -300.0
endloop
endfacet
facet normal -0.0 0.0 1.0
outer loop
vertex -525.9764160677981 58.70699326784036 -300.0
vertex -513.0197046428576 32.990788769980234 -300.0
vertex -378.07470511894314 43.2150041799579 -300.0
endloop
endfacet
facet normal 0.0 0.0 1.0
outer loop
vertex -357.0596533289466 1.504777592337673 -300.0
vertex -333.67965279204464 -77.11561051348201 -300.0
vertex -310.0219473098987 -105.93453215679642 -300.0
endloop
endfacet
facet normal 0.0 0.0 0.9999999999999999
outer loop
vertex -310.0219473098987 -105.93453215679642 -300.0
vertex -301.3897289485292 -123.06757505407474 -300.0
vertex 0.0 -250.0 -300.0
endloop
endfacet
facet normal 0.0 0.0 1.0
outer loop
vertex 0.0 -250.0 -300.0
vertex -333.5326230050343 146.24367011752165 -300.0
vertex -318.1488699169287 115.71032509011012 -300.0
endloop
endfacet
facet normal 0.0 0.0 1.0
outer loop
vertex -345.02082215716047 102.17130806174436 -300.0
vertex -447.89068772548717 127.04786847615394 -300.0
vertex -446.32191345018947 126.35319247747314 -300.0
endloop
endfacet
facet normal -0.0 0.0 1.0
outer loop
vertex -445.2457257520541 111.83892158964397 -300.0
vertex -525.9764160677981 58.70699326784036 -300.0
vertex -418.47630806649266 82.72694792600058 -300.0
endloop
endfacet
facet normal 0.0 0.0 1.0
outer loop
vertex -427.72788767453125 58.98684049737684 -300.0
vertex -525.9764160677981 58.70699326784036 -300.0
vertex -314.0589187930783 54.065730835999446 -300.0
endloop
endfacet
facet normal 0.0 0.0 1.0
outer loop
vertex -332.0155769621381 45.01854667349341 -300.0
vertex -525.9764160677981 58.70699326784036 -300.0
vertex -378.07470511894314 43.2150041799579 -300.0
endloop
endfacet
facet normal 0.0 0.0 0.9999999999999999
outer loop
vertex -357.0596533289466 1.504777592337673 -300.0
vertex -310.0219473098987 -105.93453215679642 -300.0
vertex 0.0 -250.0 -300.0
endloop
endfacet
facet normal 0.0 0.0 0.9999999999999999
outer loop
vertex 0.0 -250.0 -300.0
vertex -318.1488699169287 115.71032509011012 -300.0
vertex -345.02082215716047 102.17130806174436 -300.0
endloop
endfacet
facet normal 0.0 0.0 0.9999999999999999
outer loop
vertex -345.02082215716047 102.17130806174436 -300.0
vertex -446.32191345018947 126.35319247747314 -300.0
vertex -444.9188072969817 125.36581180477917 -300.0
endloop
endfacet
facet normal 0.0 0.0 1.0
outer loop
vertex -444.0035848908691 113.02243903816498 -300.0
vertex -445.2457257520541 111.83892158964397 -300.0
vertex -418.47630806649266 82.72694792600058 -300.0
endloop
endfacet
facet normal 0.0 0.0 1.0
outer loop
vertex -410.809852548468 67.5107305225805 -300.0
vertex -427.72788767453125 58.98684049737684 -300.0
vertex -314.0589187930783 54.065730835999446 -300.0
endloop
endfacet
facet normal 0.0 0.0 1.0
outer loop
vertex -326.0830570369276 33.24380765363104 -300.0
vertex -332.0155769621381 45.01854667349341 -300.0
vertex -378.07470511894314 43.2150041799579 -300.0
endloop
endfacet
facet normal 0.0 0.0 1.0
outer loop
vertex -378.07470511894314 43.2150041799579 -300.0
vertex -357.0596533289466 1.504777592337673 -300.0
vertex 0.0 -250.0 -300.0
endloop
endfacet
facet normal 0.0 0.0 1.0
outer loop
vertex -345.02082215716047 102.17130806174436 -300.0
vertex -444.9188072969817 125.36581180477917 -300.0
vertex -443.7352898484607 124.12367094359415 -300.0
endloop
endfacet
facet normal 0.0 0.0 1.0
outer loop
vertex -443.0162042181751 114.42554519137272 -300.0
vertex -444.0035848908691 113.02243903816498 -300.0
vertex -418.47630806649266 82.72694792600058 -300.0
endloop
endfacet
facet normal 0.0 0.0 1.0
outer loop
vertex -418.47630806649266 82.72694792600058 -300.0
vertex -410.809852548468 67.5107305225805 -300.0
vertex -314.0589187930783 54.065730835999446 -300.0
endloop
endfacet
facet normal 0.0 0.0 1.0
outer loop
vertex -326.0830570369276 33.24380765363104 -300.0
vertex -378.07470511894314 43.2150041799579 -300.0
vertex 0.0 -250.0 -300.0
endloop
endfacet
facet normal 0.0 0.0 0.9999999999999999
outer loop
vertex -345.02082215716047 102.17130806174436 -300.0
vertex -443.7352898484607 124.12367094359415 -300.0
vertex -442.8168430164489 122.67450467061283 -300.0
endloop
endfacet
facet normal 0.0 0.0 1.0
outer loop
vertex -442.3215282194943 115.99431946667046 -300.0
vertex -443.0162042181751 114.42554519137272 -300.0
vertex -418.47630806649266 82.72694792600058 -300.0
endloop
endfacet
facet normal 0.0 0.0 1.0
outer loop
vertex -308.1263988678678 42.29099181613707 -300.0
vertex -326.0830570369276 33.24380765363104 -300.0
vertex 0.0 -250.0 -300.0
endloop
endfacet
facet normal 0.0 0.0 1.0
outer loop
vertex -345.02082215716047 102.17130806174436 -300.0
vertex -442.8168430164489 122.67450467061283 -300.0
vertex -442.19876219762955 121.07400363300407 -300.0
endloop
endfacet
facet normal 0.0 0.0 1.0
outer loop
vertex -441.9462529038773 117.66847474843723 -300.0
vertex -442.3215282194943 115.99431946667046 -300.0
vertex -418.47630806649266 82.72694792600058 -300.0
endloop
endfacet
facet normal 0.0 0.0 1.0
outer loop
vertex -314.0589187930783 54.065730835999446 -300.0
vertex -308.1263988678678 42.29099181613707 -300.0
vertex 0.0 -250.0 -300.0
endloop
endfacet
facet normal 0.0 0.0 1.0
outer loop
vertex -345.02082215716047 102.17130806174436 -300.0
vertex -442.19876219762955 121.07400363300407 -300.0
vertex -441.9047998912462 119.38367418807184 -300.0
endloop
endfacet
facet normal 0.0 0.0 1.0
outer loop
vertex -441.9047998912462 119.38367418807184 -300.0
vertex -441.9462529038773 117.66847474843723 -300.0
vertex -418.47630806649266 82.72694792600058 -300.0
endloop
endfacet
facet normal -0.0 -0.0 0.9999999999999999
outer loop
vertex -314.0589187930783 54.065730835999446 -300.0
vertex 0.0 -250.0 -300.0
vertex -345.02082215716047 102.17130806174436 -300.0
endloop
endfacet
facet normal 0.0 0.0 1.0
outer loop
vertex -345.02082215716047 102.17130806174436 -300.0
vertex -441.9047998912462 119.38367418807184 -300.0
vertex -418.47630806649266 82.72694792600058 -300.0
endloop
endfacet
facet normal -0.0 -0.0 1.0
outer loop
vertex -418.47630806649266 82.72694792600058 -300.0
vertex -314.0589187930783 54.065730835999446 -300.0
vertex -345.02082215716047 102.17130806174436 -300.0
endloop
endfacet

endsolid
