solid 
facet normal 0.0 0.0 0.9999999999999999
outer loop
vertex -365.88725534756844 45.055265942457396 -300.0
vertex -324.51930892700886 49.03578005316831 -300.0
vertex -321.76915038472555 66.65916741448731 -300.0
endloop
endfacet
facet normal 0.0 0.0 0.9999999999999999
outer loop
vertex -316.0480849198965 47.75305931200742 -300.0
vertex -324.51930892700886 49.03578005316831 -300.0
vertex -365.88725534756844 45.055265942457396 -300.0
endloop
endfacet
facet normal 0.0 -0.0 1.0
outer loop
vertex -385.0086166309876 36.842369650402816 -300.0
vertex -383.34752432221876 46.83086482251707 -300.0
vertex -386.33185518277554 47.31353495377434 -300.0
endloop
endfacet
facet normal 0.0 0.0 1.0
outer loop
vertex -397.74888367766107 41.59276525173843 -300.0
vertex -402.5125148427419 42.39502017173703 -300.0
vertex -451.84313584437257 43.918284812081595 -300.0
endloop
endfacet
facet normal 0.0 0.0 0.9999999999999999
outer loop
vertex -455.83597829104093 29.91177493196483 -300.0
vertex -461.3216345401423 36.954969858480524 -300.0
vertex -476.32612077784387 39.48037904345915 -300.0
endloop
endfacet
facet normal 0.0 0.0 1.0
outer loop
vertex -507.90873042149593 38.17275725747888 -300.0
vertex -513.2335592462832 44.94833447994415 -300.0
vertex -528.0723322726656 46.832947356022345 -300.0
endloop
endfacet
facet normal 0.0 0.0 1.0
outer loop
vertex -700.0 -250.0 -300.0
vertex -531.7127646206159 34.184019261802945 -300.0
vertex -530.2722721818278 40.86018864024328 -300.0
endloop
endfacet
facet normal 0.0 0.0 1.0
outer loop
vertex -525.3485519507747 39.82247059983192 -300.0
vertex -526.0472101528069 36.596049230832534 -300.0
vertex -524.7977495081363 34.32542612819444 -300.0
endloop
endfacet
facet normal 0.0 0.0 1.0
outer loop
vertex -527.9197232866509 29.232626314095086 -300.0
vertex -531.7127646206159 34.184019261802945 -300.0
vertex -700.0 -250.0 -300.0
endloop
endfacet
facet normal 0.0 0.0 1.0
outer loop
vertex -700.0 -250.0 -300.0
vertex -541.6652550362116 -16.132299783216666 -300.0
vertex -540.6299097138992 -9.38213981600839 -300.0
endloop
endfacet
facet normal 0.0 0.0 1.0
outer loop
vertex -540.6299097138992 -9.38213981600839 -300.0
vertex -538.9564374897357 -5.898262454928499 -300.0
vertex -538.6539378645107 -1.348692357054773 -300.0
endloop
endfacet
facet normal 0.0 0.0 1.0
outer loop
vertex -538.6539378645107 -1.348692357054773 -300.0
vertex -407.2627060658086 21.705524834540256 -300.0
vertex -404.1659641076232 40.330720405337956 -300.0
endloop
endfacet
facet normal 0.0 0.0 1.0
outer loop
vertex -531.5628431470868 -2.324428133742316 -300.0
vertex -531.6934289615538 -3.7968266505474446 -300.0
vertex -529.8563254422937 -4.219397015240844 -300.0
endloop
endfacet
facet normal 0.0 0.0 1.0
outer loop
vertex -531.9041721337995 -17.181870075588023 -300.0
vertex -541.6652550362116 -16.132299783216666 -300.0
vertex -700.0 -250.0 -300.0
endloop
endfacet
facet normal 0.0 0.0 1.0
outer loop
vertex -700.0 -250.0 -300.0
vertex -529.3328045858799 -39.978866443945236 -300.0
vertex -526.8074459357365 -21.138478999321876 -300.0
endloop
endfacet
facet normal -0.0 0.0 1.0
outer loop
vertex -508.76499492194597 -23.115219065747937 -300.0
vertex -511.4200670158958 -28.955182450674073 -300.0
vertex -463.95302442848265 -24.395582792713554 -300.0
endloop
endfacet
facet normal -0.0 0.0 1.0
outer loop
vertex -463.2645110921586 -19.48199956508344 -300.0
vertex -459.82927733681043 -19.94469665642086 -300.0
vertex -459.2925649848344 -16.08317906537846 -300.0
endloop
endfacet
facet normal 0.0 -0.0 1.0
outer loop
vertex -458.19296093274426 -28.07664206483949 -300.0
vertex -457.79458628767355 -25.226055778992617 -300.0
vertex -463.95302442848265 -24.395582792713554 -300.0
endloop
endfacet
facet normal 0.0 0.0 0.9999999999999999
outer loop
vertex -463.95302442848265 -24.395582792713554 -300.0
vertex -511.4200670158958 -28.955182450674073 -300.0
vertex -511.86743126901183 -34.118887461181686 -300.0
endloop
endfacet
facet normal 0.0 -0.0 1.0
outer loop
vertex -517.8568845886988 -42.738224968027936 -300.0
vertex -517.0201384405588 -40.99627918602826 -300.0
vertex -529.3328045858799 -39.978866443945236 -300.0
endloop
endfacet
facet normal -0.0 0.0 1.0
outer loop
vertex -529.3328045858799 -39.978866443945236 -300.0
vertex -700.0 -250.0 -300.0
vertex -515.969296055682 -95.82340086414283 -300.0
endloop
endfacet
facet normal 0.0 0.0 1.0
outer loop
vertex -513.7778357792158 -75.80096360445091 -300.0
vertex -491.67880522990004 -67.83033414611654 -300.0
vertex -489.14004324110266 -49.251497168800626 -300.0
endloop
endfacet
facet normal -0.0 0.0 1.0
outer loop
vertex -489.14004324110266 -49.251497168800626 -300.0
vertex -411.4630757228094 -49.666133644182 -300.0
vertex -407.7379915841365 -27.48220564340326 -300.0
endloop
endfacet
facet normal 0.0 0.0 1.0
outer loop
vertex -477.1546913013932 -50.84156271346163 -300.0
vertex -477.35834461106634 -52.34327116281722 -300.0
vertex -471.1727515702303 -53.16498152005275 -300.0
endloop
endfacet
facet normal 0.0 -0.0 1.0
outer loop
vertex -479.2500415169756 -71.76941596397253 -300.0
vertex -478.94220635509726 -69.51538476338615 -300.0
vertex -491.67880522990004 -67.83033414611654 -300.0
endloop
endfacet
facet normal 0.0 0.0 1.0
outer loop
vertex -503.0888849170642 -76.92510978484685 -300.0
vertex -503.2346664808348 -78.22701987233606 -300.0
vertex -496.409793607716 -78.94373761171985 -300.0
endloop
endfacet
facet normal 0.0 0.0 1.0
outer loop
vertex -342.8910551508068 -83.87308687906992 -300.0
vertex -363.02741599777545 -80.07210500488682 -300.0
vertex -417.8333034723419 -82.73977492253735 -300.0
endloop
endfacet
facet normal 0.0 0.0 1.0
outer loop
vertex -417.8333034723419 -82.73977492253735 -300.0
vertex -425.8488059936876 -81.31924794906328 -300.0
vertex -498.6406427920985 -99.38351911601634 -300.0
endloop
endfacet
facet normal 0.0 -0.0 1.0
outer loop
vertex -505.8999314222246 -98.6192337815385 -300.0
vertex -505.7110506242107 -96.90587978747007 -300.0
vertex -515.969296055682 -95.82340086414283 -300.0
endloop
endfacet
facet normal -0.0 0.0 1.0
outer loop
vertex -515.969296055682 -95.82340086414283 -300.0
vertex -700.0 -250.0 -300.0
vertex -476.37535351767684 -121.9225179853581 -300.0
endloop
endfacet
facet normal -0.0 0.0 1.0
outer loop
vertex -474.81100918958424 -112.43649710713262 -300.0
vertex -472.10796751158415 -112.86598656999965 -300.0
vertex -471.41293618623024 -108.6519368429916 -300.0
endloop
endfacet
facet normal -0.0 0.0 1.0
outer loop
vertex -471.41293618623024 -108.6519368429916 -300.0
vertex -467.73531934843766 -109.2413315993766 -300.0
vertex -467.07674193322543 -105.23004595688266 -300.0
endloop
endfacet
facet normal -0.0 0.0 1.0
outer loop
vertex -467.07674193322543 -105.23004595688266 -300.0
vertex -398.0341178446773 -105.78098759672358 -300.0
vertex -395.17417371960045 -86.1913124569792 -300.0
endloop
endfacet
facet normal 0.0 0.0 1.0
outer loop
vertex -407.58185851074677 -127.99619870552519 -300.0
vertex -431.86596244180885 -123.9812086118923 -300.0
vertex -463.3923191323429 -124.00170730890997 -300.0
endloop
endfacet
facet normal 0.0 0.0 1.0
outer loop
vertex -463.3923191323429 -124.00170730890997 -300.0
vertex -476.37535351767684 -121.9225179853581 -300.0
vertex -700.0 -250.0 -300.0
endloop
endfacet
facet normal -0.0 0.0 1.0
outer loop
vertex -700.0 250.0 -300.0
vertex -700.0 -250.0 -300.0
vertex -528.0723322726656 46.832947356022345 -300.0
endloop
endfacet
facet normal 0.0 0.0 1.0
outer loop
vertex -527.2456863436327 53.133646519420694 -300.0
vertex -509.11061144573665 73.30393726900584 -300.0
vertex -508.2081106906004 79.24301654230351 -300.0
endloop
endfacet
facet normal -0.0 0.0 1.0
outer loop
vertex -508.2081106906004 79.24301654230351 -300.0
vertex -506.4990817791412 78.99403117440366 -300.0
vertex -504.6238795071032 91.29241072986275 -300.0
endloop
endfacet
facet normal -0.0 0.0 1.0
outer loop
vertex -505.4431307578984 98.01248564641224 -300.0
vertex -503.12189947348315 97.67163816262527 -300.0
vertex -502.25524376100856 103.37561838122053 -300.0
endloop
endfacet
facet normal 0.0 0.0 1.0
outer loop
vertex -502.25524376100856 103.37561838122053 -300.0
vertex -464.9566967173472 115.4310108895918 -300.0
vertex -463.9538589746438 121.82555093402915 -300.0
endloop
endfacet
facet normal 0.0 0.0 1.0
outer loop
vertex -448.4719099981497 119.4759923455543 -300.0
vertex -448.78468240844865 117.48063534411514 -300.0
vertex -447.4457435192372 117.27033067165809 -300.0
endloop
endfacet
facet normal 0.0 -0.0 0.9999999999999999
outer loop
vertex -447.4457435192372 117.27033067165809 -300.0
vertex -443.35487357928577 120.53086673183498 -300.0
vertex -445.07954710490304 121.89087420812908 -300.0
endloop
endfacet
facet normal 0.0 0.0 1.0
outer loop
vertex -438.12761319570376 128.32232211009295 -300.0
vertex -439.72548341890143 119.48599552982222 -300.0
vertex -395.034157159299 113.38623586564555 -300.0
endloop
endfacet
facet normal 0.0 0.0 1.0
outer loop
vertex -377.33323965347876 110.52575925288977 -300.0
vertex -395.034157159299 113.38623586564555 -300.0
vertex -439.72548341890143 119.48599552982222 -300.0
endloop
endfacet
facet normal 0.0 0.0 1.0
outer loop
vertex -443.73118964155555 105.9703842287515 -300.0
vertex -448.97439740875575 113.00148174632159 -300.0
vertex -464.9566967173472 115.4310108895918 -300.0
endloop
endfacet
facet normal 0.0 -0.0 1.0
outer loop
vertex -507.8087415522792 66.8037055990358 -300.0
vertex -506.87041891809156 72.9778816665619 -300.0
vertex -509.11061144573665 73.30393726900584 -300.0
endloop
endfacet
facet normal 0.0 0.0 1.0
outer loop
vertex -512.827236883726 51.30539891807601 -300.0
vertex -513.5419157557449 49.639729050514745 -300.0
vertex -512.4557723216152 48.747811036145094 -300.0
endloop
endfacet
facet normal 0.0 -0.0 1.0
outer loop
vertex -512.4557723216152 48.747811036145094 -300.0
vertex -507.3663453845935 52.2069371664509 -300.0
vertex -508.3114715103588 53.604229386559155 -300.0
endloop
endfacet
facet normal 0.0 0.0 1.0
outer loop
vertex -508.4041096792455 61.86652508913946 -300.0
vertex -455.11883729460544 65.40807144707514 -300.0
vertex -453.9928113566211 71.69960703614746 -300.0
endloop
endfacet
facet normal -0.0 0.0 0.9999999999999999
outer loop
vertex -453.9928113566211 71.69960703614746 -300.0
vertex -452.6354822329392 71.45988455108264 -300.0
vertex -450.59334565846615 82.86457478404867 -300.0
endloop
endfacet
facet normal -0.0 0.0 1.0
outer loop
vertex -451.54784799248966 90.1873568127684 -300.0
vertex -449.1908506935516 89.7788895132127 -300.0
vertex -448.0618088111032 96.0968697895234 -300.0
endloop
endfacet
facet normal 0.0 0.0 1.0
outer loop
vertex -329.9235773128687 94.60630211011136 -300.0
vertex -331.21651266386726 86.33681723194081 -300.0
vertex -327.4840023774513 85.73278985992937 -300.0
endloop
endfacet
facet normal 0.0 -0.0 1.0
outer loop
vertex -351.3151643253018 77.88097981762033 -300.0
vertex -349.9005367133677 86.97917927854871 -300.0
vertex -353.1451277040379 87.47095244267518 -300.0
endloop
endfacet
facet normal 0.0 0.0 1.0
outer loop
vertex -391.2420756920947 65.20469281224447 -300.0
vertex -400.2217097009616 66.49697122615805 -300.0
vertex -447.8953626815714 57.307605791111115 -300.0
endloop
endfacet
facet normal 0.0 -0.0 1.0
outer loop
vertex -454.4707235895896 58.450116463181445 -300.0
vertex -453.37604969618343 64.58297358519314 -300.0
vertex -455.11883729460544 65.40807144707514 -300.0
endloop
endfacet
facet normal 0.0 0.0 1.0
outer loop
vertex -502.5325866066441 60.70128712633445 -300.0
vertex -504.3876692500688 51.524330667286534 -300.0
vertex -499.2370491412207 44.97529910687717 -300.0
endloop
endfacet
facet normal 0.0 0.0 1.0
outer loop
vertex -460.9917287001491 42.53618207645755 -300.0
vertex -461.28608533690203 40.814146168077826 -300.0
vertex -459.521499660407 40.518080612404106 -300.0
endloop
endfacet
facet normal 0.0 -0.0 1.0
outer loop
vertex -459.521499660407 40.518080612404106 -300.0
vertex -455.04669985203867 44.01034532115307 -300.0
vertex -455.89368949538414 45.918937504915164 -300.0
endloop
endfacet
facet normal 0.0 0.0 1.0
outer loop
vertex -449.93747991477653 53.11872773059699 -300.0
vertex -451.84313584437257 43.918284812081595 -300.0
vertex -402.5125148427419 42.39502017173703 -300.0
endloop
endfacet
facet normal -0.0 0.0 1.0
outer loop
vertex -364.6070163856812 52.760431668232826 -300.0
vertex -365.88725534756844 45.055265942457396 -300.0
vertex -321.76915038472555 66.65916741448731 -300.0
endloop
endfacet
facet normal 0.0 0.0 1.0
outer loop
vertex -316.0480849198965 47.75305931200742 -300.0
vertex -365.88725534756844 45.055265942457396 -300.0
vertex -362.022457234755 44.42753529134805 -300.0
endloop
endfacet
facet normal 0.0 0.0 1.0
outer loop
vertex -385.0086166309876 36.842369650402816 -300.0
vertex -386.33185518277554 47.31353495377434 -300.0
vertex -397.74888367766107 41.59276525173843 -300.0
endloop
endfacet
facet normal 0.0 0.0 1.0
outer loop
vertex -397.74888367766107 41.59276525173843 -300.0
vertex -451.84313584437257 43.918284812081595 -300.0
vertex -446.5547671644274 37.12811623594732 -300.0
endloop
endfacet
facet normal 0.0 0.0 1.0
outer loop
vertex -455.83597829104093 29.91177493196483 -300.0
vertex -476.32612077784387 39.48037904345915 -300.0
vertex -507.90873042149593 38.17275725747888 -300.0
endloop
endfacet
facet normal -0.0 0.0 1.0
outer loop
vertex -528.0723322726656 46.832947356022345 -300.0
vertex -700.0 -250.0 -300.0
vertex -530.2722721818278 40.86018864024328 -300.0
endloop
endfacet
facet normal 0.0 0.0 1.0
outer loop
vertex -525.3485519507747 39.82247059983192 -300.0
vertex -524.7977495081363 34.32542612819444 -300.0
vertex -502.500734944778 31.2119087406264 -300.0
endloop
endfacet
facet normal 0.0 0.0 1.0
outer loop
vertex -700.0 -250.0 -300.0
vertex -540.6299097138992 -9.38213981600839 -300.0
vertex -538.6539378645107 -1.348692357054773 -300.0
endloop
endfacet
facet normal -0.0 0.0 1.0
outer loop
vertex -531.9041721337995 -17.181870075588023 -300.0
vertex -700.0 -250.0 -300.0
vertex -526.8074459357365 -21.138478999321876 -300.0
endloop
endfacet
facet normal 0.0 0.0 1.0
outer loop
vertex -526.8074459357365 -21.138478999321876 -300.0
vertex -508.76499492194597 -23.115219065747937 -300.0
vertex -463.95302442848265 -24.395582792713554 -300.0
endloop
endfacet
facet normal 0.0 0.0 1.0
outer loop
vertex -458.19296093274426 -28.07664206483949 -300.0
vertex -463.95302442848265 -24.395582792713554 -300.0
vertex -511.86743126901183 -34.118887461181686 -300.0
endloop
endfacet
facet normal 0.0 0.0 1.0
outer loop
vertex -517.8568845886988 -42.738224968027936 -300.0
vertex -529.3328045858799 -39.978866443945236 -300.0
vertex -515.969296055682 -95.82340086414283 -300.0
endloop
endfacet
facet normal -0.0 0.0 1.0
outer loop
vertex -413.2861628016027 -57.62049717413058 -300.0
vertex -417.8333034723419 -82.73977492253735 -300.0
vertex -363.02741599777545 -80.07210500488682 -300.0
endloop
endfacet
facet normal 0.0 0.0 1.0
outer loop
vertex -505.8999314222246 -98.6192337815385 -300.0
vertex -515.969296055682 -95.82340086414283 -300.0
vertex -476.37535351767684 -121.9225179853581 -300.0
endloop
endfacet
facet normal -0.0 0.0 1.0
outer loop
vertex -460.4827519780612 -106.28738944080649 -300.0
vertex -463.3923191323429 -124.00170730890997 -300.0
vertex -431.86596244180885 -123.9812086118923 -300.0
endloop
endfacet
facet normal 0.0 0.0 0.9999999999999999
outer loop
vertex -407.58185851074677 -127.99619870552519 -300.0
vertex -463.3923191323429 -124.00170730890997 -300.0
vertex -700.0 -250.0 -300.0
endloop
endfacet
facet normal -0.0 0.0 1.0
outer loop
vertex -700.0 250.0 -300.0
vertex -528.0723322726656 46.832947356022345 -300.0
vertex -527.2456863436327 53.133646519420694 -300.0
endloop
endfacet
facet normal 0.0 0.0 1.0
outer loop
vertex -527.2456863436327 53.133646519420694 -300.0
vertex -508.2081106906004 79.24301654230351 -300.0
vertex -504.6238795071032 91.29241072986275 -300.0
endloop
endfacet
facet normal -0.0 0.0 0.9999999999999999
outer loop
vertex -448.4719099981497 119.4759923455543 -300.0
vertex -447.4457435192372 117.27033067165809 -300.0
vertex -445.07954710490304 121.89087420812908 -300.0
endloop
endfacet
facet normal -0.0 0.0 1.0
outer loop
vertex -438.12761319570376 128.32232211009295 -300.0
vertex -395.034157159299 113.38623586564555 -300.0
vertex -393.21790922885054 124.30624071853559 -300.0
endloop
endfacet
facet normal 0.0 0.0 1.0
outer loop
vertex -377.33323965347876 110.52575925288977 -300.0
vertex -439.72548341890143 119.48599552982222 -300.0
vertex -434.67385592602216 112.71967174612058 -300.0
endloop
endfacet
facet normal 0.0 0.0 1.0
outer loop
vertex -507.8087415522792 66.8037055990358 -300.0
vertex -509.11061144573665 73.30393726900584 -300.0
vertex -527.2456863436327 53.133646519420694 -300.0
endloop
endfacet
facet normal -0.0 0.0 1.0
outer loop
vertex -512.827236883726 51.30539891807601 -300.0
vertex -512.4557723216152 48.747811036145094 -300.0
vertex -508.3114715103588 53.604229386559155 -300.0
endloop
endfacet
facet normal 0.0 0.0 1.0
outer loop
vertex -508.4041096792455 61.86652508913946 -300.0
vertex -453.9928113566211 71.69960703614746 -300.0
vertex -450.59334565846615 82.86457478404867 -300.0
endloop
endfacet
facet normal 0.0 0.0 1.0
outer loop
vertex -351.3151643253018 77.88097981762033 -300.0
vertex -353.1451277040379 87.47095244267518 -300.0
vertex -391.2141716832119 84.37436346894381 -300.0
endloop
endfacet
facet normal -0.0 0.0 1.0
outer loop
vertex -460.9917287001491 42.53618207645755 -300.0
vertex -459.521499660407 40.518080612404106 -300.0
vertex -455.89368949538414 45.918937504915164 -300.0
endloop
endfacet
facet normal -0.0 0.0 1.0
outer loop
vertex -449.93747991477653 53.11872773059699 -300.0
vertex -402.5125148427419 42.39502017173703 -300.0
vertex -400.31346192270667 55.198648528710834 -300.0
endloop
endfacet
facet normal -0.0 0.0 1.0
outer loop
vertex -395.5488190830852 54.40521406778382 -300.0
vertex -397.74888367766107 41.59276525173843 -300.0
vertex -386.33185518277554 47.31353495377434 -300.0
endloop
endfacet
facet normal -0.0 0.0 1.0
outer loop
vertex -384.8861382689414 56.03840928067362 -300.0
vertex -364.6070163856812 52.760431668232826 -300.0
vertex -321.76915038472555 66.65916741448731 -300.0
endloop
endfacet
facet normal 0.0 0.0 1.0
outer loop
vertex -316.0480849198965 47.75305931200742 -300.0
vertex -362.022457234755 44.42753529134805 -300.0
vertex -363.8536898678206 33.41637300275238 -300.0
endloop
endfacet
facet normal 0.0 0.0 0.9999999999999999
outer loop
vertex -507.90873042149593 38.17275725747888 -300.0
vertex -528.0723322726656 46.832947356022345 -300.0
vertex -530.2722721818278 40.86018864024328 -300.0
endloop
endfacet
facet normal -0.0 0.0 1.0
outer loop
vertex -527.9197232866509 29.232626314095086 -300.0
vertex -700.0 -250.0 -300.0
vertex -538.6539378645107 -1.348692357054773 -300.0
endloop
endfacet
facet normal 0.0 0.0 0.9999999999999999
outer loop
vertex -398.4336191657589 20.27819757630411 -300.0
vertex -407.2627060658086 21.705524834540256 -300.0
vertex -538.6539378645107 -1.348692357054773 -300.0
endloop
endfacet
facet normal 0.0 0.0 0.9999999999999999
outer loop
vertex -538.6539378645107 -1.348692357054773 -300.0
vertex -387.62741508918435 15.071585376956335 -300.0
vertex -386.84848703913764 20.278994760411763 -300.0
endloop
endfacet
facet normal 0.0 0.0 1.0
outer loop
vertex -367.053396359902 12.084205697448368 -300.0
vertex -387.62741508918435 15.071585376956335 -300.0
vertex -538.6539378645107 -1.348692357054773 -300.0
endloop
endfacet
facet normal 0.0 0.0 1.0
outer loop
vertex -323.5124963741691 4.04645629400315 -300.0
vertex -339.8558128966595 7.3137283055073965 -300.0
vertex -538.6539378645107 -1.348692357054773 -300.0
endloop
endfacet
facet normal 0.0 0.0 1.0
outer loop
vertex -529.8563254422937 -4.219397015240844 -300.0
vertex -531.9041721337995 -17.181870075588023 -300.0
vertex -526.8074459357365 -21.138478999321876 -300.0
endloop
endfacet
facet normal -0.0 0.0 1.0
outer loop
vertex -526.8074459357365 -21.138478999321876 -300.0
vertex -463.95302442848265 -24.395582792713554 -300.0
vertex -463.2645110921586 -19.48199956508344 -300.0
endloop
endfacet
facet normal 0.0 0.0 1.0
outer loop
vertex -448.9040550312826 -29.331218226568325 -300.0
vertex -458.19296093274426 -28.07664206483949 -300.0
vertex -511.86743126901183 -34.118887461181686 -300.0
endloop
endfacet
facet normal 0.0 0.0 1.0
outer loop
vertex -512.2815816435856 -43.26237401368658 -300.0
vertex -517.8568845886988 -42.738224968027936 -300.0
vertex -515.969296055682 -95.82340086414283 -300.0
endloop
endfacet
facet normal -0.0 0.0 1.0
outer loop
vertex -413.2861628016027 -57.62049717413058 -300.0
vertex -363.02741599777545 -80.07210500488682 -300.0
vertex -359.0865620486039 -59.643080609311056 -300.0
endloop
endfacet
facet normal 0.0 0.0 1.0
outer loop
vertex -498.6406427920985 -99.38351911601634 -300.0
vertex -505.8999314222246 -98.6192337815385 -300.0
vertex -476.37535351767684 -121.9225179853581 -300.0
endloop
endfacet
facet normal -0.0 0.0 1.0
outer loop
vertex -460.4827519780612 -106.28738944080649 -300.0
vertex -431.86596244180885 -123.9812086118923 -300.0
vertex -430.50125709764006 -115.9616133688933 -300.0
endloop
endfacet
facet normal -0.0 0.0 1.0
outer loop
vertex -407.58185851074677 -127.99619870552519 -300.0
vertex -700.0 -250.0 -300.0
vertex 0.0 -250.0 -300.0
endloop
endfacet
facet normal 0.0 -0.0 0.9999999999999999
outer loop
vertex -527.2456863436327 53.133646519420694 -300.0
vertex -504.6238795071032 91.29241072986275 -300.0
vertex -506.42232047647224 91.55913951618786 -300.0
endloop
endfacet
facet normal -0.0 0.0 1.0
outer loop
vertex -463.9538589746438 121.82555093402915 -300.0
vertex -448.4719099981497 119.4759923455543 -300.0
vertex -445.07954710490304 121.89087420812908 -300.0
endloop
endfacet
facet normal 0.0 0.0 0.9999999999999999
outer loop
vertex -443.7404287512842 129.31374200364985 -300.0
vertex -438.12761319570376 128.32232211009295 -300.0
vertex -393.21790922885054 124.30624071853559 -300.0
endloop
endfacet
facet normal 0.0 0.0 1.0
outer loop
vertex -377.33323965347876 110.52575925288977 -300.0
vertex -434.67385592602216 112.71967174612058 -300.0
vertex -443.73118964155555 105.9703842287515 -300.0
endloop
endfacet
facet normal 0.0 0.0 1.0
outer loop
vertex -502.1859989500367 65.97384569252765 -300.0
vertex -507.8087415522792 66.8037055990358 -300.0
vertex -527.2456863436327 53.133646519420694 -300.0
endloop
endfacet
facet normal -0.0 0.0 1.0
outer loop
vertex -527.2456863436327 53.133646519420694 -300.0
vertex -512.827236883726 51.30539891807601 -300.0
vertex -508.3114715103588 53.604229386559155 -300.0
endloop
endfacet
facet normal 0.0 -0.0 1.0
outer loop
vertex -508.4041096792455 61.86652508913946 -300.0
vertex -450.59334565846615 82.86457478404867 -300.0
vertex -452.7835630080076 83.2463881462933 -300.0
endloop
endfacet
facet normal -0.0 0.0 1.0
outer loop
vertex -389.2518037504613 98.41273736415377 -300.0
vertex -391.2141716832119 84.37436346894381 -300.0
vertex -353.1451277040379 87.47095244267518 -300.0
endloop
endfacet
facet normal 0.0 0.0 1.0
outer loop
vertex -351.3151643253018 77.88097981762033 -300.0
vertex -391.2141716832119 84.37436346894381 -300.0
vertex -395.6996762963685 84.98228296349944 -300.0
endloop
endfacet
facet normal -0.0 0.0 1.0
outer loop
vertex -499.2370491412207 44.97529910687717 -300.0
vertex -507.90873042149593 38.17275725747888 -300.0
vertex -476.32612077784387 39.48037904345915 -300.0
endloop
endfacet
facet normal -0.0 0.0 1.0
outer loop
vertex -475.3766441148935 44.957960571712846 -300.0
vertex -460.9917287001491 42.53618207645755 -300.0
vertex -455.89368949538414 45.918937504915164 -300.0
endloop
endfacet
facet normal -0.0 0.0 1.0
outer loop
vertex -455.90846361711203 54.328111591694125 -300.0
vertex -449.93747991477653 53.11872773059699 -300.0
vertex -400.31346192270667 55.198648528710834 -300.0
endloop
endfacet
facet normal -0.0 0.0 1.0
outer loop
vertex -395.5488190830852 54.40521406778382 -300.0
vertex -386.33185518277554 47.31353495377434 -300.0
vertex -384.8861382689414 56.03840928067362 -300.0
endloop
endfacet
facet normal 0.0 0.0 1.0
outer loop
vertex -455.83597829104093 29.91177493196483 -300.0
vertex -507.90873042149593 38.17275725747888 -300.0
vertex -530.2722721818278 40.86018864024328 -300.0
endloop
endfacet
facet normal 0.0 0.0 1.0
outer loop
vertex -503.27697213967735 25.801722895509528 -300.0
vertex -527.9197232866509 29.232626314095086 -300.0
vertex -538.6539378645107 -1.348692357054773 -300.0
endloop
endfacet
facet normal -0.0 0.0 1.0
outer loop
vertex -398.4336191657589 20.27819757630411 -300.0
vertex -538.6539378645107 -1.348692357054773 -300.0
vertex -386.84848703913764 20.278994760411763 -300.0
endloop
endfacet
facet normal -0.0 0.0 1.0
outer loop
vertex -367.053396359902 12.084205697448368 -300.0
vertex -538.6539378645107 -1.348692357054773 -300.0
vertex -339.8558128966595 7.3137283055073965 -300.0
endloop
endfacet
facet normal 0.0 0.0 1.0
outer loop
vertex -323.5124963741691 4.04645629400315 -300.0
vertex -538.6539378645107 -1.348692357054773 -300.0
vertex -531.5628431470868 -2.324428133742316 -300.0
endloop
endfacet
facet normal -0.0 0.0 1.0
outer loop
vertex -529.8563254422937 -4.219397015240844 -300.0
vertex -526.8074459357365 -21.138478999321876 -300.0
vertex -463.2645110921586 -19.48199956508344 -300.0
endloop
endfacet
facet normal 0.0 0.0 1.0
outer loop
vertex -448.9040550312826 -29.331218226568325 -300.0
vertex -511.86743126901183 -34.118887461181686 -300.0
vertex -512.2815816435856 -43.26237401368658 -300.0
endloop
endfacet
facet normal -0.0 0.0 1.0
outer loop
vertex -512.2815816435856 -43.26237401368658 -300.0
vertex -515.969296055682 -95.82340086414283 -300.0
vertex -513.7778357792158 -75.80096360445091 -300.0
endloop
endfacet
facet normal 0.0 0.0 1.0
outer loop
vertex -479.2500415169756 -71.76941596397253 -300.0
vertex -491.67880522990004 -67.83033414611654 -300.0
vertex -513.7778357792158 -75.80096360445091 -300.0
endloop
endfacet
facet normal -0.0 0.0 1.0
outer loop
vertex -496.409793607716 -78.94373761171985 -300.0
vertex -498.6406427920985 -99.38351911601634 -300.0
vertex -425.8488059936876 -81.31924794906328 -300.0
endloop
endfacet
facet normal -0.0 0.0 1.0
outer loop
vertex -498.6406427920985 -99.38351911601634 -300.0
vertex -476.37535351767684 -121.9225179853581 -300.0
vertex -474.81100918958424 -112.43649710713262 -300.0
endloop
endfacet
facet normal 0.0 0.0 1.0
outer loop
vertex -460.4827519780612 -106.28738944080649 -300.0
vertex -430.50125709764006 -115.9616133688933 -300.0
vertex -406.221862055829 -119.97952451768768 -300.0
endloop
endfacet
facet normal 0.0 0.0 1.0
outer loop
vertex -406.221862055829 -119.97952451768768 -300.0
vertex -407.58185851074677 -127.99619870552519 -300.0
vertex 0.0 -250.0 -300.0
endloop
endfacet
facet normal -0.0 0.0 1.0
outer loop
vertex -700.0 250.0 -300.0
vertex -527.2456863436327 53.133646519420694 -300.0
vertex -506.42232047647224 91.55913951618786 -300.0
endloop
endfacet
facet normal 0.0 0.0 1.0
outer loop
vertex -463.9538589746438 121.82555093402915 -300.0
vertex -445.07954710490304 121.89087420812908 -300.0
vertex -443.7404287512842 129.31374200364985 -300.0
endloop
endfacet
facet normal 0.0 -0.0 0.9999999999999999
outer loop
vertex -527.2456863436327 53.133646519420694 -300.0
vertex -508.3114715103588 53.604229386559155 -300.0
vertex -510.00666219830225 53.93549818968884 -300.0
endloop
endfacet
facet normal 0.0 0.0 1.0
outer loop
vertex -508.4041096792455 61.86652508913946 -300.0
vertex -452.7835630080076 83.2463881462933 -300.0
vertex -451.54784799248966 90.1873568127684 -300.0
endloop
endfacet
facet normal -0.0 0.0 1.0
outer loop
vertex -389.2518037504613 98.41273736415377 -300.0
vertex -353.1451277040379 87.47095244267518 -300.0
vertex -351.5184608363434 97.879794184752 -300.0
endloop
endfacet
facet normal 0.0 0.0 1.0
outer loop
vertex -502.5325866066441 60.70128712633445 -300.0
vertex -499.2370491412207 44.97529910687717 -300.0
vertex -476.32612077784387 39.48037904345915 -300.0
endloop
endfacet
facet normal 0.0 -0.0 1.0
outer loop
vertex -475.3766441148935 44.957960571712846 -300.0
vertex -455.89368949538414 45.918937504915164 -300.0
vertex -457.57848584785205 46.26487168712842 -300.0
endloop
endfacet
facet normal -0.0 0.0 1.0
outer loop
vertex -400.31346192270667 55.198648528710834 -300.0
vertex -395.5488190830852 54.40521406778382 -300.0
vertex -384.8861382689414 56.03840928067362 -300.0
endloop
endfacet
facet normal 0.0 0.0 1.0
outer loop
vertex -455.83597829104093 29.91177493196483 -300.0
vertex -530.2722721818278 40.86018864024328 -300.0
vertex -525.3485519507747 39.82247059983192 -300.0
endloop
endfacet
facet normal -0.0 0.0 0.9999999999999999
outer loop
vertex -395.336890246074 38.90340358363105 -300.0
vertex -398.4336191657589 20.27819757630411 -300.0
vertex -386.84848703913764 20.278994760411763 -300.0
endloop
endfacet
facet normal 0.0 0.0 1.0
outer loop
vertex -366.27447728767936 17.291621425839992 -300.0
vertex -367.053396359902 12.084205697448368 -300.0
vertex -339.8558128966595 7.3137283055073965 -300.0
endloop
endfacet
facet normal 0.0 0.0 0.9999999999999999
outer loop
vertex -323.5124963741691 4.04645629400315 -300.0
vertex -531.5628431470868 -2.324428133742316 -300.0
vertex -529.8563254422937 -4.219397015240844 -300.0
endloop
endfacet
facet normal -0.0 0.0 1.0
outer loop
vertex -529.8563254422937 -4.219397015240844 -300.0
vertex -463.2645110921586 -19.48199956508344 -300.0
vertex -459.2925649848344 -16.08317906537846 -300.0
endloop
endfacet
facet normal -0.0 0.0 1.0
outer loop
vertex -512.2815816435856 -43.26237401368658 -300.0
vertex -513.7778357792158 -75.80096360445091 -300.0
vertex -489.14004324110266 -49.251497168800626 -300.0
endloop
endfacet
facet normal 0.0 0.0 1.0
outer loop
vertex -392.23144003762826 -52.81370010613827 -300.0
vertex -411.4630757228094 -49.666133644182 -300.0
vertex -489.14004324110266 -49.251497168800626 -300.0
endloop
endfacet
facet normal 0.0 0.0 1.0
outer loop
vertex -473.8146490345069 -72.4873437729888 -300.0
vertex -479.2500415169756 -71.76941596397253 -300.0
vertex -513.7778357792158 -75.80096360445091 -300.0
endloop
endfacet
facet normal 0.0 0.0 1.0
outer loop
vertex -503.0888849170642 -76.92510978484685 -300.0
vertex -496.409793607716 -78.94373761171985 -300.0
vertex -425.8488059936876 -81.31924794906328 -300.0
endloop
endfacet
facet normal -0.0 0.0 1.0
outer loop
vertex -498.6406427920985 -99.38351911601634 -300.0
vertex -474.81100918958424 -112.43649710713262 -300.0
vertex -471.41293618623024 -108.6519368429916 -300.0
endloop
endfacet
facet normal -0.0 0.0 1.0
outer loop
vertex -700.0 250.0 -300.0
vertex -506.42232047647224 91.55913951618786 -300.0
vertex -505.4431307578984 98.01248564641224 -300.0
endloop
endfacet
facet normal 0.0 0.0 1.0
outer loop
vertex -527.2456863436327 53.133646519420694 -300.0
vertex -510.00666219830225 53.93549818968884 -300.0
vertex -508.4041096792455 61.86652508913946 -300.0
endloop
endfacet
facet normal 0.0 0.0 1.0
outer loop
vertex -508.4041096792455 61.86652508913946 -300.0
vertex -451.54784799248966 90.1873568127684 -300.0
vertex -448.0618088111032 96.0968697895234 -300.0
endloop
endfacet
facet normal 0.0 0.0 1.0
outer loop
vertex -393.72893243220216 99.0177040242682 -300.0
vertex -389.2518037504613 98.41273736415377 -300.0
vertex -351.5184608363434 97.879794184752 -300.0
endloop
endfacet
facet normal 0.0 0.0 1.0
outer loop
vertex -454.4707235895896 58.450116463181445 -300.0
vertex -455.11883729460544 65.40807144707514 -300.0
vertex -508.4041096792455 61.86652508913946 -300.0
endloop
endfacet
facet normal -0.0 0.0 1.0
outer loop
vertex -502.5325866066441 60.70128712633445 -300.0
vertex -476.32612077784387 39.48037904345915 -300.0
vertex -475.3766441148935 44.957960571712846 -300.0
endloop
endfacet
facet normal 0.0 0.0 1.0
outer loop
vertex -475.3766441148935 44.957960571712846 -300.0
vertex -457.57848584785205 46.26487168712842 -300.0
vertex -455.90846361711203 54.328111591694125 -300.0
endloop
endfacet
facet normal 0.0 0.0 1.0
outer loop
vertex -455.90846361711203 54.328111591694125 -300.0
vertex -400.31346192270667 55.198648528710834 -300.0
vertex -384.8861382689414 56.03840928067362 -300.0
endloop
endfacet
facet normal 0.0 0.0 1.0
outer loop
vertex -455.83597829104093 29.91177493196483 -300.0
vertex -525.3485519507747 39.82247059983192 -300.0
vertex -502.500734944778 31.2119087406264 -300.0
endloop
endfacet
facet normal 0.0 0.0 1.0
outer loop
vertex -395.336890246074 38.90340358363105 -300.0
vertex -386.84848703913764 20.278994760411763 -300.0
vertex -366.27447728767936 17.291621425839992 -300.0
endloop
endfacet
facet normal -0.0 0.0 1.0
outer loop
vertex -366.27447728767936 17.291621425839992 -300.0
vertex -339.8558128966595 7.3137283055073965 -300.0
vertex -337.02732853833083 21.157169013841497 -300.0
endloop
endfacet
facet normal 0.0 0.0 1.0
outer loop
vertex -323.5124963741691 4.04645629400315 -300.0
vertex -529.8563254422937 -4.219397015240844 -300.0
vertex -459.2925649848344 -16.08317906537846 -300.0
endloop
endfacet
facet normal 0.0 0.0 1.0
outer loop
vertex -448.9040550312826 -29.331218226568325 -300.0
vertex -512.2815816435856 -43.26237401368658 -300.0
vertex -489.14004324110266 -49.251497168800626 -300.0
endloop
endfacet
facet normal 0.0 0.0 1.0
outer loop
vertex -392.23144003762826 -52.81370010613827 -300.0
vertex -489.14004324110266 -49.251497168800626 -300.0
vertex -477.1546913013932 -50.84156271346163 -300.0
endloop
endfacet
facet normal 0.0 0.0 1.0
outer loop
vertex -473.8146490345069 -72.4873437729888 -300.0
vertex -513.7778357792158 -75.80096360445091 -300.0
vertex -503.0888849170642 -76.92510978484685 -300.0
endloop
endfacet
facet normal -0.0 0.0 1.0
outer loop
vertex -498.6406427920985 -99.38351911601634 -300.0
vertex -471.41293618623024 -108.6519368429916 -300.0
vertex -467.07674193322543 -105.23004595688266 -300.0
endloop
endfacet
facet normal 0.0 0.0 1.0
outer loop
vertex -376.83850416546204 -108.780983488624 -300.0
vertex -398.0341178446773 -105.78098759672358 -300.0
vertex -467.07674193322543 -105.23004595688266 -300.0
endloop
endfacet
facet normal -0.0 0.0 1.0
outer loop
vertex -700.0 250.0 -300.0
vertex -505.4431307578984 98.01248564641224 -300.0
vertex -502.25524376100856 103.37561838122053 -300.0
endloop
endfacet
facet normal 0.0 0.0 1.0
outer loop
vertex -443.73118964155555 105.9703842287515 -300.0
vertex -464.9566967173472 115.4310108895918 -300.0
vertex -502.25524376100856 103.37561838122053 -300.0
endloop
endfacet
facet normal -0.0 0.0 0.9999999999999999
outer loop
vertex -502.1859989500367 65.97384569252765 -300.0
vertex -527.2456863436327 53.133646519420694 -300.0
vertex -508.4041096792455 61.86652508913946 -300.0
endloop
endfacet
facet normal 0.0 0.0 1.0
outer loop
vertex -447.8953626815714 57.307605791111115 -300.0
vertex -454.4707235895896 58.450116463181445 -300.0
vertex -508.4041096792455 61.86652508913946 -300.0
endloop
endfacet
facet normal -0.0 0.0 1.0
outer loop
vertex -502.5325866066441 60.70128712633445 -300.0
vertex -475.3766441148935 44.957960571712846 -300.0
vertex -455.90846361711203 54.328111591694125 -300.0
endloop
endfacet
facet normal 0.0 0.0 1.0
outer loop
vertex -455.90846361711203 54.328111591694125 -300.0
vertex -384.8861382689414 56.03840928067362 -300.0
vertex -321.76915038472555 66.65916741448731 -300.0
endloop
endfacet
facet normal 0.0 0.0 0.9999999999999999
outer loop
vertex -455.83597829104093 29.91177493196483 -300.0
vertex -502.500734944778 31.2119087406264 -300.0
vertex -503.27697213967735 25.801722895509528 -300.0
endloop
endfacet
facet normal -0.0 0.0 1.0
outer loop
vertex -395.336890246074 38.90340358363105 -300.0
vertex -366.27447728767936 17.291621425839992 -300.0
vertex -337.02732853833083 21.157169013841497 -300.0
endloop
endfacet
facet normal 0.0 0.0 1.0
outer loop
vertex -323.5124963741691 4.04645629400315 -300.0
vertex -459.2925649848344 -16.08317906537846 -300.0
vertex -447.2841445350209 -17.699639740969985 -300.0
endloop
endfacet
facet normal -0.0 0.0 1.0
outer loop
vertex -448.9040550312826 -29.331218226568325 -300.0
vertex -489.14004324110266 -49.251497168800626 -300.0
vertex -407.7379915841365 -27.48220564340326 -300.0
endloop
endfacet
facet normal 0.0 0.0 1.0
outer loop
vertex -392.23144003762826 -52.81370010613827 -300.0
vertex -477.1546913013932 -50.84156271346163 -300.0
vertex -471.1727515702303 -53.16498152005275 -300.0
endloop
endfacet
facet normal 0.0 0.0 0.9999999999999999
outer loop
vertex -473.8146490345069 -72.4873437729888 -300.0
vertex -503.0888849170642 -76.92510978484685 -300.0
vertex -425.8488059936876 -81.31924794906328 -300.0
endloop
endfacet
facet normal 0.0 0.0 1.0
outer loop
vertex -417.8333034723419 -82.73977492253735 -300.0
vertex -498.6406427920985 -99.38351911601634 -300.0
vertex -467.07674193322543 -105.23004595688266 -300.0
endloop
endfacet
facet normal 0.0 0.0 1.0
outer loop
vertex -376.83850416546204 -108.780983488624 -300.0
vertex -467.07674193322543 -105.23004595688266 -300.0
vertex -460.4827519780612 -106.28738944080649 -300.0
endloop
endfacet
facet normal -0.0 0.0 1.0
outer loop
vertex -700.0 250.0 -300.0
vertex -502.25524376100856 103.37561838122053 -300.0
vertex -463.9538589746438 121.82555093402915 -300.0
endloop
endfacet
facet normal 0.0 0.0 0.9999999999999999
outer loop
vertex -443.73118964155555 105.9703842287515 -300.0
vertex -502.25524376100856 103.37561838122053 -300.0
vertex -496.624147865224 102.54282133222935 -300.0
endloop
endfacet
facet normal -0.0 0.0 0.9999999999999999
outer loop
vertex -502.1859989500367 65.97384569252765 -300.0
vertex -508.4041096792455 61.86652508913946 -300.0
vertex -448.0618088111032 96.0968697895234 -300.0
endloop
endfacet
facet normal 0.0 0.0 1.0
outer loop
vertex -447.8953626815714 57.307605791111115 -300.0
vertex -508.4041096792455 61.86652508913946 -300.0
vertex -502.5325866066441 60.70128712633445 -300.0
endloop
endfacet
facet normal 0.0 0.0 1.0
outer loop
vertex -455.83597829104093 29.91177493196483 -300.0
vertex -503.27697213967735 25.801722895509528 -300.0
vertex -538.6539378645107 -1.348692357054773 -300.0
endloop
endfacet
facet normal 0.0 0.0 1.0
outer loop
vertex -395.336890246074 38.90340358363105 -300.0
vertex -337.02732853833083 21.157169013841497 -300.0
vertex -320.6840275498205 17.889913553526384 -300.0
endloop
endfacet
facet normal 0.0 0.0 1.0
outer loop
vertex -323.5124963741691 4.04645629400315 -300.0
vertex -447.2841445350209 -17.699639740969985 -300.0
vertex -448.9040550312826 -29.331218226568325 -300.0
endloop
endfacet
facet normal 0.0 0.0 0.9999999999999999
outer loop
vertex -471.1727515702303 -53.16498152005275 -300.0
vertex -473.8146490345069 -72.4873437729888 -300.0
vertex -425.8488059936876 -81.31924794906328 -300.0
endloop
endfacet
facet normal -0.0 0.0 1.0
outer loop
vertex -417.8333034723419 -82.73977492253735 -300.0
vertex -467.07674193322543 -105.23004595688266 -300.0
vertex -395.17417371960045 -86.1913124569792 -300.0
endloop
endfacet
facet normal 0.0 0.0 1.0
outer loop
vertex -376.83850416546204 -108.780983488624 -300.0
vertex -460.4827519780612 -106.28738944080649 -300.0
vertex -406.221862055829 -119.97952451768768 -300.0
endloop
endfacet
facet normal -0.0 0.0 1.0
outer loop
vertex -700.0 250.0 -300.0
vertex -463.9538589746438 121.82555093402915 -300.0
vertex -443.7404287512842 129.31374200364985 -300.0
endloop
endfacet
facet normal 0.0 0.0 1.0
outer loop
vertex -443.73118964155555 105.9703842287515 -300.0
vertex -496.624147865224 102.54282133222935 -300.0
vertex -502.1859989500367 65.97384569252765 -300.0
endloop
endfacet
facet normal 0.0 0.0 0.9999999999999999
outer loop
vertex -447.8953626815714 57.307605791111115 -300.0
vertex -502.5325866066441 60.70128712633445 -300.0
vertex -455.90846361711203 54.328111591694125 -300.0
endloop
endfacet
facet normal -0.0 0.0 1.0
outer loop
vertex -455.83597829104093 29.91177493196483 -300.0
vertex -538.6539378645107 -1.348692357054773 -300.0
vertex -404.1659641076232 40.330720405337956 -300.0
endloop
endfacet
facet normal -0.0 0.0 1.0
outer loop
vertex -323.5124963741691 4.04645629400315 -300.0
vertex -448.9040550312826 -29.331218226568325 -300.0
vertex -407.7379915841365 -27.48220564340326 -300.0
endloop
endfacet
facet normal -0.0 0.0 1.0
outer loop
vertex -471.1727515702303 -53.16498152005275 -300.0
vertex -425.8488059936876 -81.31924794906328 -300.0
vertex -421.30266681252215 -56.20880027766256 -300.0
endloop
endfacet
facet normal 0.0 0.0 1.0
outer loop
vertex -330.9545466433057 -54.233083425308706 -300.0
vertex -337.1282515104182 -53.232274805754884 -300.0
vertex -421.30266681252215 -56.20880027766256 -300.0
endloop
endfacet
facet normal 0.0 0.0 1.0
outer loop
vertex -421.30266681252215 -56.20880027766256 -300.0
vertex -413.2861628016027 -57.62049717413058 -300.0
vertex -359.0865620486039 -59.643080609311056 -300.0
endloop
endfacet
facet normal 0.0 0.0 1.0
outer loop
vertex -342.8910551508068 -83.87308687906992 -300.0
vertex -417.8333034723419 -82.73977492253735 -300.0
vertex -395.17417371960045 -86.1913124569792 -300.0
endloop
endfacet
facet normal 0.0 0.0 1.0
outer loop
vertex -376.83850416546204 -108.780983488624 -300.0
vertex -406.221862055829 -119.97952451768768 -300.0
vertex 0.0 -250.0 -300.0
endloop
endfacet
facet normal 0.0 0.0 1.0
outer loop
vertex 0.0 250.0 -300.0
vertex -700.0 250.0 -300.0
vertex -443.7404287512842 129.31374200364985 -300.0
endloop
endfacet
facet normal -0.0 0.0 1.0
outer loop
vertex -443.73118964155555 105.9703842287515 -300.0
vertex -502.1859989500367 65.97384569252765 -300.0
vertex -448.0618088111032 96.0968697895234 -300.0
endloop
endfacet
facet normal -0.0 0.0 1.0
outer loop
vertex -441.18740280331224 94.90404680178025 -300.0
vertex -447.8953626815714 57.307605791111115 -300.0
vertex -395.6996762963685 84.98228296349944 -300.0
endloop
endfacet
facet normal 0.0 0.0 0.9999999999999999
outer loop
vertex -447.8953626815714 57.307605791111115 -300.0
vertex -400.2217097009616 66.49697122615805 -300.0
vertex -397.83425210654605 82.55997372895709 -300.0
endloop
endfacet
facet normal 0.0 0.0 1.0
outer loop
vertex -391.2420756920947 65.20469281224447 -300.0
vertex -447.8953626815714 57.307605791111115 -300.0
vertex -455.90846361711203 54.328111591694125 -300.0
endloop
endfacet
facet normal -0.0 0.0 1.0
outer loop
vertex -446.5547671644274 37.12811623594732 -300.0
vertex -455.83597829104093 29.91177493196483 -300.0
vertex -404.1659641076232 40.330720405337956 -300.0
endloop
endfacet
facet normal 0.0 0.0 1.0
outer loop
vertex -323.5124963741691 4.04645629400315 -300.0
vertex -407.7379915841365 -27.48220564340326 -300.0
vertex -388.5063895113238 -30.629744842316 -300.0
endloop
endfacet
facet normal 0.0 0.0 1.0
outer loop
vertex -392.23144003762826 -52.81370010613827 -300.0
vertex -471.1727515702303 -53.16498152005275 -300.0
vertex -421.30266681252215 -56.20880027766256 -300.0
endloop
endfacet
facet normal 0.0 0.0 0.9999999999999999
outer loop
vertex -330.9545466433057 -54.233083425308706 -300.0
vertex -421.30266681252215 -56.20880027766256 -300.0
vertex -359.0865620486039 -59.643080609311056 -300.0
endloop
endfacet
facet normal 0.0 0.0 1.0
outer loop
vertex -342.8910551508068 -83.87308687906992 -300.0
vertex -395.17417371960045 -86.1913124569792 -300.0
vertex -373.9785952422101 -89.19128414542669 -300.0
endloop
endfacet
facet normal 0.0 0.0 1.0
outer loop
vertex -373.9785952422101 -89.19128414542669 -300.0
vertex -376.83850416546204 -108.780983488624 -300.0
vertex 0.0 -250.0 -300.0
endloop
endfacet
facet normal 0.0 0.0 1.0
outer loop
vertex 0.0 250.0 -300.0
vertex -443.7404287512842 129.31374200364985 -300.0
vertex -393.21790922885054 124.30624071853559 -300.0
endloop
endfacet
facet normal 0.0 0.0 1.0
outer loop
vertex -377.33323965347876 110.52575925288977 -300.0
vertex -443.73118964155555 105.9703842287515 -300.0
vertex -448.0618088111032 96.0968697895234 -300.0
endloop
endfacet
facet normal -0.0 0.0 1.0
outer loop
vertex -441.18740280331224 94.90404680178025 -300.0
vertex -395.6996762963685 84.98228296349944 -300.0
vertex -393.72893243220216 99.0177040242682 -300.0
endloop
endfacet
facet normal -0.0 0.0 1.0
outer loop
vertex -395.6996762963685 84.98228296349944 -300.0
vertex -447.8953626815714 57.307605791111115 -300.0
vertex -397.83425210654605 82.55997372895709 -300.0
endloop
endfacet
facet normal -0.0 0.0 1.0
outer loop
vertex -391.2420756920947 65.20469281224447 -300.0
vertex -455.90846361711203 54.328111591694125 -300.0
vertex -321.76915038472555 66.65916741448731 -300.0
endloop
endfacet
facet normal -0.0 0.0 1.0
outer loop
vertex -397.74888367766107 41.59276525173843 -300.0
vertex -446.5547671644274 37.12811623594732 -300.0
vertex -404.1659641076232 40.330720405337956 -300.0
endloop
endfacet
facet normal 0.0 0.0 0.9999999999999999
outer loop
vertex -323.5124963741691 4.04645629400315 -300.0
vertex -388.5063895113238 -30.629744842316 -300.0
vertex -392.23144003762826 -52.81370010613827 -300.0
endloop
endfacet
facet normal -0.0 0.0 1.0
outer loop
vertex -392.23144003762826 -52.81370010613827 -300.0
vertex -421.30266681252215 -56.20880027766256 -300.0
vertex -337.1282515104182 -53.232274805754884 -300.0
endloop
endfacet
facet normal 0.0 0.0 1.0
outer loop
vertex -330.9545466433057 -54.233083425308706 -300.0
vertex -359.0865620486039 -59.643080609311056 -300.0
vertex -338.94186012344164 -63.44698280046694 -300.0
endloop
endfacet
facet normal 0.0 0.0 0.9999999999999999
outer loop
vertex -342.8910551508068 -83.87308687906992 -300.0
vertex -373.9785952422101 -89.19128414542669 -300.0
vertex 0.0 -250.0 -300.0
endloop
endfacet
facet normal 0.0 0.0 1.0
outer loop
vertex 0.0 250.0 -300.0
vertex -393.21790922885054 124.30624071853559 -300.0
vertex -375.51700705218775 121.4457763767885 -300.0
endloop
endfacet
facet normal 0.0 0.0 1.0
outer loop
vertex -377.33323965347876 110.52575925288977 -300.0
vertex -448.0618088111032 96.0968697895234 -300.0
vertex -441.18740280331224 94.90404680178025 -300.0
endloop
endfacet
facet normal 0.0 0.0 0.9999999999999999
outer loop
vertex -351.3151643253018 77.88097981762033 -300.0
vertex -395.6996762963685 84.98228296349944 -300.0
vertex -397.83425210654605 82.55997372895709 -300.0
endloop
endfacet
facet normal -0.0 0.0 1.0
outer loop
vertex -388.8630007349357 81.27065308043447 -300.0
vertex -391.2420756920947 65.20469281224447 -300.0
vertex -321.76915038472555 66.65916741448731 -300.0
endloop
endfacet
facet normal 0.0 0.0 1.0
outer loop
vertex -397.74888367766107 41.59276525173843 -300.0
vertex -404.1659641076232 40.330720405337956 -300.0
vertex -395.336890246074 38.90340358363105 -300.0
endloop
endfacet
facet normal -0.0 0.0 1.0
outer loop
vertex -392.23144003762826 -52.81370010613827 -300.0
vertex -337.1282515104182 -53.232274805754884 -300.0
vertex -333.10180076101204 -28.961736813941712 -300.0
endloop
endfacet
facet normal 0.0 0.0 0.9999999999999999
outer loop
vertex -330.9545466433057 -54.233083425308706 -300.0
vertex -338.94186012344164 -63.44698280046694 -300.0
vertex -342.8910551508068 -83.87308687906992 -300.0
endloop
endfacet
facet normal -0.0 0.0 1.0
outer loop
vertex -342.8910551508068 -83.87308687906992 -300.0
vertex 0.0 -250.0 -300.0
vertex 0.0 250.0 -300.0
endloop
endfacet
facet normal 0.0 0.0 1.0
outer loop
vertex 0.0 250.0 -300.0
vertex -375.51700705218775 121.4457763767885 -300.0
vertex -377.33323965347876 110.52575925288977 -300.0
endloop
endfacet
facet normal -0.0 0.0 1.0
outer loop
vertex -377.33323965347876 110.52575925288977 -300.0
vertex -441.18740280331224 94.90404680178025 -300.0
vertex -393.72893243220216 99.0177040242682 -300.0
endloop
endfacet
facet normal 0.0 0.0 1.0
outer loop
vertex -329.2319379009182 74.53635603982417 -300.0
vertex -351.3151643253018 77.88097981762033 -300.0
vertex -397.83425210654605 82.55997372895709 -300.0
endloop
endfacet
facet normal 0.0 0.0 1.0
outer loop
vertex -388.8630007349357 81.27065308043447 -300.0
vertex -321.76915038472555 66.65916741448731 -300.0
vertex -313.2979386301732 65.3764557598019 -300.0
endloop
endfacet
facet normal 0.0 0.0 1.0
outer loop
vertex -385.0086166309876 36.842369650402816 -300.0
vertex -397.74888367766107 41.59276525173843 -300.0
vertex -395.336890246074 38.90340358363105 -300.0
endloop
endfacet
facet normal -0.0 0.0 1.0
outer loop
vertex -323.5124963741691 4.04645629400315 -300.0
vertex -392.23144003762826 -52.81370010613827 -300.0
vertex -333.10180076101204 -28.961736813941712 -300.0
endloop
endfacet
facet normal -0.0 0.0 1.0
outer loop
vertex -330.9545466433057 -54.233083425308706 -300.0
vertex -342.8910551508068 -83.87308687906992 -300.0
vertex 0.0 250.0 -300.0
endloop
endfacet
facet normal 0.0 0.0 1.0
outer loop
vertex 0.0 250.0 -300.0
vertex -377.33323965347876 110.52575925288977 -300.0
vertex -393.72893243220216 99.0177040242682 -300.0
endloop
endfacet
facet normal 0.0 0.0 1.0
outer loop
vertex -329.2319379009182 74.53635603982417 -300.0
vertex -397.83425210654605 82.55997372895709 -300.0
vertex -388.8630007349357 81.27065308043447 -300.0
endloop
endfacet
facet normal 0.0 0.0 1.0
outer loop
vertex -385.0086166309876 36.842369650402816 -300.0
vertex -395.336890246074 38.90340358363105 -300.0
vertex -320.6840275498205 17.889913553526384 -300.0
endloop
endfacet
facet normal 0.0 0.0 1.0
outer loop
vertex -323.5124963741691 4.04645629400315 -300.0
vertex -333.10180076101204 -28.961736813941712 -300.0
vertex -326.93178484229395 -29.956653057128193 -300.0
endloop
endfacet
facet normal -0.0 0.0 1.0
outer loop
vertex -326.93178484229395 -29.956653057128193 -300.0
vertex -330.9545466433057 -54.233083425308706 -300.0
vertex 0.0 250.0 -300.0
endloop
endfacet
facet normal 0.0 0.0 0.9999999999999999
outer loop
vertex 0.0 250.0 -300.0
vertex -393.72893243220216 99.0177040242682 -300.0
vertex -351.5184608363434 97.879794184752 -300.0
endloop
endfacet
facet normal 0.0 0.0 0.9999999999999999
outer loop
vertex -329.2319379009182 74.53635603982417 -300.0
vertex -388.8630007349357 81.27065308043447 -300.0
vertex -313.2979386301732 65.3764557598019 -300.0
endloop
endfacet
facet normal 0.0 0.0 1.0
outer loop
vertex -363.8536898678206 33.41637300275238 -300.0
vertex -385.0086166309876 36.842369650402816 -300.0
vertex -320.6840275498205 17.889913553526384 -300.0
endloop
endfacet
facet normal 0.0 0.0 1.0
outer loop
vertex -320.6840275498205 17.889913553526384 -300.0
vertex -323.5124963741691 4.04645629400315 -300.0
vertex -326.93178484229395 -29.956653057128193 -300.0
endloop
endfacet
facet normal 0.0 0.0 1.0
outer loop
vertex 0.0 250.0 -300.0
vertex -351.5184608363434 97.879794184752 -300.0
vertex -329.9235773128687 94.60630211011136 -300.0
endloop
endfacet
facet normal 0.0 0.0 1.0
outer loop
vertex -327.4840023774513 85.73278985992937 -300.0
vertex -329.2319379009182 74.53635603982417 -300.0
vertex -313.2979386301732 65.3764557598019 -300.0
endloop
endfacet
facet normal 0.0 0.0 1.0
outer loop
vertex -316.0480849198965 47.75305931200742 -300.0
vertex -363.8536898678206 33.41637300275238 -300.0
vertex -320.6840275498205 17.889913553526384 -300.0
endloop
endfacet
facet normal -0.0 0.0 1.0
outer loop
vertex -320.6840275498205 17.889913553526384 -300.0
vertex -326.93178484229395 -29.956653057128193 -300.0
vertex 0.0 250.0 -300.0
endloop
endfacet
facet normal 0.0 0.0 1.0
outer loop
vertex 0.0 250.0 -300.0
vertex -329.9235773128687 94.60630211011136 -300.0
vertex -327.4840023774513 85.73278985992937 -300.0
endloop
endfacet
facet normal 0.0 0.0 1.0
outer loop
vertex -313.2979386301732 65.3764557598019 -300.0
vertex -316.0480849198965 47.75305931200742 -300.0
vertex -320.6840275498205 17.889913553526384 -300.0
endloop
endfacet
facet normal 0.0 0.0 1.0
outer loop
vertex 0.0 250.0 -300.0
vertex -327.4840023774513 85.73278985992937 -300.0
vertex -313.2979386301732 65.3764557598019 -300.0
endloop
endfacet
facet normal -0.0 0.0 1.0
outer loop
vertex -313.2979386301732 65.3764557598019 -300.0
vertex -320.6840275498205 17.889913553526384 -300.0
vertex 0.0 250.0 -300.0
endloop
endfacet

endsolid
